<svg width="25" height="24" viewBox="0 0 25 24" fill="none" xmlns="http://www.w3.org/2000/svg">
<path d="M24.5 12.0746C24.5 5.40933 19.1241 0 12.5 0C5.8759 0 0.5 5.40933 0.5 12.0746C0.5 18.1057 4.88723 23.1047 10.6339 24V15.5565H7.569V12.0746H10.6339V9.41347C10.6339 6.39171 12.4135 4.71295 15.1571 4.71295C16.467 4.71295 17.8265 4.96166 17.8265 4.96166V7.90881H16.3187C14.8234 7.90881 14.3538 8.85389 14.3538 9.79896V12.0622H17.6905L17.1591 15.544H14.3538V23.9876C20.1128 23.1047 24.5 18.1057 24.5 12.0746Z" fill="#1877F2"/>
<path d="M17.1712 15.4643L17.7026 12.0058H14.3658V9.75769C14.3658 8.80659 14.8478 7.88018 16.3308 7.88018H17.8385V4.9404C17.8385 4.9404 16.4791 4.69336 15.1691 4.69336C12.4255 4.69336 10.6459 6.36088 10.6459 9.36243V12.0058H7.58105V15.4643H10.6459V23.8514C11.2515 23.9502 11.8818 23.9996 12.512 23.9996C13.1423 23.9996 13.7726 23.9502 14.3782 23.8514V15.4643H17.1712Z" fill="white"/>
</svg>
